<?xml version="1.0" encoding="utf-8"?>
<svg id="Ebene_1" data-name="Ebene 1" xmlns="http://www.w3.org/2000/svg" width="256.84px" height="187.76px" viewBox="0 0 256.84 187.76">
<defs>
</defs>
<path class="cls-1" fill="white" d="M35.49,103.26c-.78-.05-1.48.53-2.12,1.75a22,22,0,0,0-1.71,4.82q-.75,3-1.38,6.85c-.41,2.58-.82,5.19-1.21,7.85s-.78,5.25-1.17,7.77-.78,4.7-1.17,6.52a20.72,20.72,0,0,1-1.08,3.45,14.88,14.88,0,0,1-2,3.66,4.25,4.25,0,0,1-2.74,1.74q-1.55.21-3.37-2.37a25,25,0,0,1-3.19-6.86q-1.29-4.12-2.2-8.56c-.6-3-1.11-5.9-1.52-8.81s-.79-5.45-1.12-7.61c-.05-.44-.15-1.19-.29-2.24s-.34-2.2-.62-3.45S8,105.26,7.65,104a15.61,15.61,0,0,0-1.16-3.2A3.56,3.56,0,0,0,5,99.12c-.53-.25-1.1,0-1.71.79a10.92,10.92,0,0,0-1,3.2q-.63,2.7-1.17,6.81c-.36,2.74-.61,5.81-.75,9.18a91.32,91.32,0,0,0,.15,10.31,59.85,59.85,0,0,0,1.61,10.18,31.37,31.37,0,0,0,3.65,8.85,19.56,19.56,0,0,0,6.15,6.32,17.17,17.17,0,0,0,9.22,2.51,10.32,10.32,0,0,0,6.94-2.12,15.81,15.81,0,0,0,4.28-5.44,29.62,29.62,0,0,0,2.38-7.06q.8-3.81,1.21-7a44.81,44.81,0,0,0,.34-5.27c0-1.75,0-3.49-.12-5.24s-.17-3.47-.25-5.19a44.23,44.23,0,0,1,0-5.15c.05-1,.14-2.18.25-3.53s.2-2.65.25-3.87a14.05,14.05,0,0,0-.12-3C36.22,103.59,35.93,103.21,35.49,103.26Z">
</path>
<path class="cls-1" fill="white" d="M69.91,127A11.64,11.64,0,0,0,66,127c-1.61.27-3,.52-4.16.74s-2.13.41-2.91.58c-.94.22-1.72.41-2.33.58-.22-3.93-.32-7.62-.32-11q0-2.25.09-4.53c0-1.53.17-3,.33-4.41s.38-2.71.63-3.9a13.88,13.88,0,0,1,1-3,2.73,2.73,0,0,1,2.08-1.54,19.24,19.24,0,0,1,3-.33,13.11,13.11,0,0,0,2.75-.33,1.43,1.43,0,0,0,1.2-1.54c0-.33-.34-.77-1-1.33a13.1,13.1,0,0,0-2.71-1.58,15.84,15.84,0,0,0-3.73-1.12,12.36,12.36,0,0,0-4.16,0,9.12,9.12,0,0,0-3.95,1.7A10.33,10.33,0,0,0,48.62,100a20.69,20.69,0,0,0-1.25,3.91c-.33,1.49-.61,3.09-.83,4.77s-.4,3.43-.51,5.2-.17,3.49-.17,5.15c-.11,3.94,0,8,.24,12.3a9.87,9.87,0,0,0-2.24,1.24,13.51,13.51,0,0,0-1.71,1.5,6,6,0,0,0-1.21,1.82q-.91,2.08,0,3.33a2.7,2.7,0,0,0,2.74,1,4.18,4.18,0,0,0,2.08-.58,4.38,4.38,0,0,1,.67-.42q-.09,5.33-.18,9.89c0,1.28,0,2.58,0,3.91s0,2.56,0,3.7.07,2.16.12,3.07a12.83,12.83,0,0,0,.25,2,2,2,0,0,0,1.16,1.62,3.64,3.64,0,0,0,2.12.13,9.23,9.23,0,0,0,2.58-1A14,14,0,0,0,55,160.62a5.1,5.1,0,0,0,1-2,18.61,18.61,0,0,0,.7-3.33c.17-1.27.3-2.67.38-4.19s.13-3,.13-4.53q.09-5.24-.32-11.63c1.11-.56,2.38-1.14,3.82-1.75,1.22-.49,2.64-1,4.24-1.53s3.33-1,5.16-1.45a2.59,2.59,0,0,0,1.79-.95,1.05,1.05,0,0,0,0-1.33A3.47,3.47,0,0,0,69.91,127Z">
</path>
<path class="cls-1" fill="white" d="M115.55,158.35a1.18,1.18,0,0,0-1-.29,6.16,6.16,0,0,1-1.62-.17,8,8,0,0,1-2.41-1.08,15.34,15.34,0,0,1-3.32-3.12,9,9,0,0,1-1.82-4.2,46.33,46.33,0,0,1-.7-5.69q-.21-3.08-.37-6.4a41.41,41.41,0,0,0-.79-6.36,18.88,18.88,0,0,0-2-5.48,9.33,9.33,0,0,0-4-3.79,6.62,6.62,0,0,0-3.07-.83,8.72,8.72,0,0,0-2.91.49A10.3,10.3,0,0,0,89,122.84a20.29,20.29,0,0,0-2.33,2A28.23,28.23,0,0,0,82,131.15a22.46,22.46,0,0,1,2.5-5.65,64.55,64.55,0,0,0,3.33-6.4,37.38,37.38,0,0,0,2.46-7.64,24.49,24.49,0,0,0,0-9.31,8.64,8.64,0,0,0-1.36-3.53,14.75,14.75,0,0,0-3-3.49,12.18,12.18,0,0,0-4.12-2.29,6.89,6.89,0,0,0-4.61.08q-1.34.49-2.16,3.9a58.71,58.71,0,0,0-1.3,8.47q-.47,5.07-.63,11.18t-.22,11.93c0,3.87,0,7.45,0,10.72s.11,5.81.16,7.64a21.09,21.09,0,0,0,.08,3.33,14.8,14.8,0,0,0,.58,2.65,3.76,3.76,0,0,0,1.33,2,10.72,10.72,0,0,0,2.16,1.12,6.72,6.72,0,0,0,2.53.55,3.08,3.08,0,0,0,2.12-.83,4,4,0,0,0,1-2.91c.06-.89.14-2.08.25-3.57s.28-3.08.51-4.74.51-3.35.87-5.07a26.44,26.44,0,0,1,1.38-4.61,10.13,10.13,0,0,1,2-3.24,3.34,3.34,0,0,1,2.66-1.12A2.68,2.68,0,0,1,92.76,132a14.89,14.89,0,0,1,1.2,4.2c.28,1.72.51,3.61.7,5.69s.48,4.13.87,6.15a29.87,29.87,0,0,0,1.61,5.61,8.77,8.77,0,0,0,3,4,17.73,17.73,0,0,0,7.52,3.46,12.71,12.71,0,0,0,5.78-.2,8.93,8.93,0,0,0,1.74-.79,1.76,1.76,0,0,0,.71-.67.73.73,0,0,0,0-.58A1.86,1.86,0,0,0,115.55,158.35ZM80.93,124.41q-.25-4.89-.37-8.43t0-7.4A50.91,50.91,0,0,1,81,102a8.58,8.58,0,0,1,1.08-3.58c.45-.55.89-.62,1.33-.2a5.36,5.36,0,0,1,1.16,2.41,20.19,20.19,0,0,1,.66,4.28,25.73,25.73,0,0,1-.58,5.82c-.45,2.21-1,4.35-1.5,6.39S81.87,121.59,80.93,124.41Z">
</path>
<path class="cls-1" fill="white" d="M147.71,152.56a4.06,4.06,0,0,1-2.7-2.28,16,16,0,0,1-1.4-4.49,33,33,0,0,1-.46-5.74c0-2.07,0-4.1.13-6.06s.19-3.74.3-5.32a30.17,30.17,0,0,0,.09-3.62,3.75,3.75,0,0,0-.83-1.87,7.92,7.92,0,0,0-1.91-1.7,13.19,13.19,0,0,0-2.49-1.25,6.49,6.49,0,0,0-2.5-.46,3.15,3.15,0,0,0-1.95.7,2.93,2.93,0,0,0-.88,2.16l-.21,3.5c-.08,1.49-.25,3.1-.5,4.81s-.57,3.48-1,5.28a23.69,23.69,0,0,1-1.58,4.86,12.9,12.9,0,0,1-2.37,3.57,4.45,4.45,0,0,1-3.29,1.41,2.45,2.45,0,0,1-2.16-1.41A11.27,11.27,0,0,1,120.8,141a39,39,0,0,1-.58-4.86c-.11-1.78-.16-3.48-.16-5.11s0-3.12.09-4.45.11-2.27.17-2.82a2.16,2.16,0,0,0-1.25-2.33,7,7,0,0,0-3-.54,11.54,11.54,0,0,0-3.28.53,6.61,6.61,0,0,0-2.08.92,4,4,0,0,0-.75,1.82,22.47,22.47,0,0,0-.5,3.41c-.12,1.33-.17,2.77-.17,4.32a42.6,42.6,0,0,0,.24,4.65,40.63,40.63,0,0,0,.91,5.78,19.62,19.62,0,0,0,2,5.28,13.69,13.69,0,0,0,3.57,4.12,11.83,11.83,0,0,0,5.61,2.2,8.09,8.09,0,0,0,5.77-1,13.56,13.56,0,0,0,3.87-3.7,20.17,20.17,0,0,0,2.83-5.73A16.2,16.2,0,0,0,135.5,149a13.91,13.91,0,0,0,3.07,4.16,11,11,0,0,0,5.9,2.66,9.36,9.36,0,0,0,3.7.09,3.13,3.13,0,0,0,1.83-1,.93.93,0,0,0-.13-1.28A4.32,4.32,0,0,0,147.71,152.56Z">
</path>
<path class="cls-1" fill="white" d="M177.8,143.74a43.06,43.06,0,0,0-3.73-4.16,49.08,49.08,0,0,1-3.82-4.16,26.56,26.56,0,0,1-2.95-4.36,9.14,9.14,0,0,1-1.12-4.66,11.25,11.25,0,0,1,.63-4,8.45,8.45,0,0,1,1.54-2.58,7.56,7.56,0,0,1,1.91-1.53c.67-.36,1.26-.67,1.79-.92a5.1,5.1,0,0,0,1.21-.74.81.81,0,0,0,.08-1,5.88,5.88,0,0,0-.66-.87,3.4,3.4,0,0,0-1.29-.8,7.53,7.53,0,0,0-2.37-.37,19,19,0,0,0-3.82.37q-4.74.82-6.86,3.57t-2.13,8.64a10.09,10.09,0,0,0,2.12,5.94,38,38,0,0,0,4.89,5.57c1.86,1.75,3.67,3.34,5.44,4.79A24,24,0,0,1,172.4,146a3.3,3.3,0,0,1,.87,2.54,3.12,3.12,0,0,1-1.21,1.91,6.58,6.58,0,0,1-2.53,1.16,11.53,11.53,0,0,1-7.32-.71,10.44,10.44,0,0,1-3.07-2.21,6,6,0,0,1-1.53-2.74,3.55,3.55,0,0,1,.33-2.62c.94-1.55,1.21-2.68.79-3.41s-1.26-.72-2.53,0a23.19,23.19,0,0,0-2.16,1.37,8.6,8.6,0,0,0-2.25,2.41,10,10,0,0,0-1.37,3.86,14,14,0,0,0,.53,5.74,6.35,6.35,0,0,0,2.91,3.82,16.76,16.76,0,0,0,5.52,2.21,29,29,0,0,0,6.86.63,28.27,28.27,0,0,0,6.81-.95,16.2,16.2,0,0,0,5.36-2.49A6.21,6.21,0,0,0,181,152.6a8.32,8.32,0,0,0-.62-4.53A20,20,0,0,0,177.8,143.74Z">
</path>
<path class="cls-1" fill="white" d="M256.74,151.09c-.28-.17-.74-.1-1.37.2l-2.25,1.08a14.4,14.4,0,0,1-2.74,1,5.58,5.58,0,0,1-2.95-.05,4.2,4.2,0,0,1-2.78-2,13.14,13.14,0,0,1-1.49-3.83,31.72,31.72,0,0,1-.75-4.9c-.13-1.77-.27-3.53-.41-5.28s-.34-3.41-.62-5a13.52,13.52,0,0,0-1.24-4,10,10,0,0,0-2.86-3.49,6.62,6.62,0,0,0-3.37-1.29,8,8,0,0,0-3.45.54,10.54,10.54,0,0,0-3.12,1.91,22.85,22.85,0,0,0-2.91,3.19q-1.41,1.88-2.49,3.61-1.24,2.09-2.33,4.24c0-2.82,0-5.34-.08-7.56-.05-.94-.11-1.87-.16-2.78a22,22,0,0,0-.29-2.46,16.06,16.06,0,0,0-.42-1.74c-.13-.45-.31-.67-.54-.67a6.75,6.75,0,0,0-1.7.29,11.56,11.56,0,0,0-2.08.83,14.74,14.74,0,0,0-2,1.25,5.37,5.37,0,0,0-1.46,1.53,8.83,8.83,0,0,0-.58,2.74c-.17,1.44-.3,3.15-.38,5.11s-.14,4.05-.17,6.24v.2a3,3,0,0,0-.59.71c-.52.86-1.2,1.87-2,3a23.28,23.28,0,0,1-3.12,3.45,9.34,9.34,0,0,1-4.87,2.19,5.58,5.58,0,0,1-2.49,0,4.34,4.34,0,0,1-1.83-1,5.22,5.22,0,0,1-1.2-1.53,13.25,13.25,0,0,1-.79-1.88,15.66,15.66,0,0,1-.66-5.4,13,13,0,0,0,4.74-.74,19.7,19.7,0,0,0,4.53-2.24,17,17,0,0,0,4.62-4.73,14.15,14.15,0,0,0,2.45-5.73,10.71,10.71,0,0,0-.28-5.12,7.89,7.89,0,0,0-2.53-3.74,7.37,7.37,0,0,0-4.28-1.62,25.78,25.78,0,0,0-5,.49,21.35,21.35,0,0,0-4.82,1.54,17.56,17.56,0,0,0-4.2,2.69,13.39,13.39,0,0,0-3.08,3.9,20.11,20.11,0,0,0-2.37,5,27.07,27.07,0,0,0-1.25,6.1,29,29,0,0,0,.12,6.45,21.53,21.53,0,0,0,1.65,6.06,16.22,16.22,0,0,0,3.41,5,12.67,12.67,0,0,0,5.4,3.16,14.64,14.64,0,0,0,7.23.63,15.48,15.48,0,0,0,5.73-2.27,15.07,15.07,0,0,0,4.12-4,25,25,0,0,0,1.45-2.39c0,1.07.12,2,.21,2.89a5.2,5.2,0,0,0,.54,2.37,4.85,4.85,0,0,0,2,.83,13.5,13.5,0,0,0,3,.34,11.89,11.89,0,0,0,2.87-.33,2.4,2.4,0,0,0,1.75-1.25,8.39,8.39,0,0,0,.41-2.58c.06-1.16.19-2.49.38-4a27,27,0,0,1,1.13-4.82,23.7,23.7,0,0,1,5.37-8.6,3.24,3.24,0,0,1,2.28-1.12c.67.06,1.21.61,1.62,1.67a16.05,16.05,0,0,1,.79,4.82q.4,9.06,3.14,14.67a11.07,11.07,0,0,0,9,6.45,10.13,10.13,0,0,0,5.61-.71A14.2,14.2,0,0,0,254,156a10.73,10.73,0,0,0,2.33-3.08C256.83,151.92,257,151.31,256.74,151.09ZM192,131.75a13.63,13.63,0,0,1,.67-2.12,14.19,14.19,0,0,1,1.67-2.95,12.22,12.22,0,0,1,2.91-3.15,8.67,8.67,0,0,1,2.57-1.33,4.81,4.81,0,0,1,2.5,0,4.17,4.17,0,0,1,.33,2,8.41,8.41,0,0,1-.63,2.24,8.16,8.16,0,0,1-2,2.74,17.64,17.64,0,0,1-2.95,2.32,14,14,0,0,1-2.53,1.25,12.5,12.5,0,0,1-2.42.66A3.31,3.31,0,0,1,192,131.75Z">
</path>
<path class="cls-1" fill="white" d="M12.13,187.52a.29.29,0,0,1-.27-.23L9,176.87h0L6,187.29a.29.29,0,0,1-.27.23H4a.28.28,0,0,1-.27-.23L0,172.5c0-.14,0-.23.18-.23h2.1a.25.25,0,0,1,.27.23L5,182.76H5L7.87,172.5a.29.29,0,0,1,.27-.23H9.71c.16,0,.23.09.27.23l2.92,10.26h0l2.35-10.26a.26.26,0,0,1,.27-.23h2.09c.15,0,.2.09.18.23l-3.72,14.79a.28.28,0,0,1-.27.23Z">
</path>
<path class="cls-1" fill="white" d="M21.64,172.5a.21.21,0,0,1,.22-.23h9.55a.21.21,0,0,1,.22.23v1.92a.21.21,0,0,1-.22.23h-7c-.09,0-.14,0-.14.13v3.72a.13.13,0,0,0,.14.14h5.89a.21.21,0,0,1,.23.22v1.93a.22.22,0,0,1-.23.23H24.42c-.09,0-.14,0-.14.13V185c0,.09,0,.13.14.13h7a.21.21,0,0,1,.22.22v1.93a.21.21,0,0,1-.22.23H21.86a.21.21,0,0,1-.22-.23Z">
</path>
<path class="cls-1" fill="white" d="M36.18,172.5a.22.22,0,0,1,.23-.23H38.6a.22.22,0,0,1,.23.23v14.79a.22.22,0,0,1-.23.23H36.41a.22.22,0,0,1-.23-.23Z">
</path>
<path class="cls-1" fill="white" d="M47.34,187.52a.21.21,0,0,1-.22-.23V174.78c0-.09,0-.13-.13-.13H43a.22.22,0,0,1-.23-.23V172.5a.22.22,0,0,1,.23-.23H53.89a.21.21,0,0,1,.22.23v1.92a.21.21,0,0,1-.22.23h-4c-.09,0-.13,0-.13.13v12.51a.22.22,0,0,1-.23.23Z">
</path>
<path class="cls-1" fill="white" d="M57.25,185.74a.24.24,0,0,1,0-.33l1.39-1.62a.2.2,0,0,1,.31,0,6.79,6.79,0,0,0,4.15,1.62c1.81,0,2.87-.92,2.87-2.2,0-1.1-.68-1.82-2.78-2.11l-.81-.11c-2.94-.4-4.6-1.82-4.6-4.35,0-2.76,2-4.59,5.16-4.59a8.35,8.35,0,0,1,4.93,1.52.2.2,0,0,1,0,.31l-1.08,1.66a.22.22,0,0,1-.31.07,6.44,6.44,0,0,0-3.66-1.19c-1.54,0-2.4.85-2.4,2s.74,1.77,2.81,2.06l.8.12c2.94.4,4.55,1.79,4.55,4.41s-2,4.73-5.73,4.73A8.55,8.55,0,0,1,57.25,185.74Z">
</path>
<path class="cls-1" fill="white" d="M73,172.5a.21.21,0,0,1,.22-.23h2.2a.21.21,0,0,1,.22.23v14.79a.21.21,0,0,1-.22.23h-2.2a.21.21,0,0,1-.22-.23Z">
</path>
<path class="cls-1" fill="white" d="M80.31,179.89a11.55,11.55,0,0,1,.41-4.12A5.13,5.13,0,0,1,86,172a5.34,5.34,0,0,1,5.15,3.27.2.2,0,0,1-.11.27l-1.9.92a.2.2,0,0,1-.29-.12,3,3,0,0,0-2.85-2,2.71,2.71,0,0,0-2.74,2,22.5,22.5,0,0,0,0,7,2.71,2.71,0,0,0,2.74,2,3,3,0,0,0,2.85-2,.2.2,0,0,1,.29-.11l1.9.92a.2.2,0,0,1,.11.27A5.34,5.34,0,0,1,86,187.76,5.13,5.13,0,0,1,80.72,184,11.58,11.58,0,0,1,80.31,179.89Z">
</path>
<path class="cls-1" fill="white" d="M95.42,172.5a.22.22,0,0,1,.23-.23h2.19a.22.22,0,0,1,.23.23v6c0,.09,0,.14.13.14H104c.09,0,.13,0,.13-.14v-6a.22.22,0,0,1,.23-.23h2.19a.22.22,0,0,1,.23.23v14.79a.22.22,0,0,1-.23.23h-2.19a.22.22,0,0,1-.23-.23v-6.14c0-.09,0-.13-.13-.13H98.2c-.09,0-.13,0-.13.13v6.14a.22.22,0,0,1-.23.23H95.65a.22.22,0,0,1-.23-.23Z">
</path>
<path class="cls-1" fill="white" d="M115.3,187.52a.21.21,0,0,1-.22-.23V174.78c0-.09,0-.13-.13-.13h-4a.22.22,0,0,1-.23-.23V172.5a.22.22,0,0,1,.23-.23h10.89a.21.21,0,0,1,.22.23v1.92a.21.21,0,0,1-.22.23h-4c-.09,0-.14,0-.14.13v12.51a.21.21,0,0,1-.22.23Z">
</path>
<path class="cls-1" fill="white" d="M132.83,172.5a.21.21,0,0,1,.22-.23h2a.36.36,0,0,1,.38.23l4.19,9.39h.09l4.13-9.39a.35.35,0,0,1,.38-.23h2a.22.22,0,0,1,.23.23v14.79a.22.22,0,0,1-.23.23h-1.95a.21.21,0,0,1-.22-.23V178h-.09l-3.23,7.17a.43.43,0,0,1-.43.29H139a.42.42,0,0,1-.42-.29L135.32,178h-.09v9.32a.22.22,0,0,1-.23.23h-1.95a.21.21,0,0,1-.22-.23Z">
</path>
<path class="cls-1" fill="white" d="M151.55,172.5a.21.21,0,0,1,.22-.23H154a.21.21,0,0,1,.22.23v14.79a.21.21,0,0,1-.22.23h-2.2a.21.21,0,0,1-.22-.23Z">
</path>
<path class="cls-1" fill="white" d="M162.71,187.52a.21.21,0,0,1-.22-.23V174.78c0-.09-.05-.13-.14-.13h-4a.21.21,0,0,1-.22-.23V172.5a.21.21,0,0,1,.22-.23h10.89a.22.22,0,0,1,.23.23v1.92a.22.22,0,0,1-.23.23h-4a.12.12,0,0,0-.13.13v12.51a.21.21,0,0,1-.22.23Z">
</path>
<path class="cls-1" fill="white" d="M179.43,185.74a.24.24,0,0,1-.05-.33l1.39-1.62a.21.21,0,0,1,.32,0,6.76,6.76,0,0,0,4.14,1.62c1.82,0,2.87-.92,2.87-2.2,0-1.1-.67-1.82-2.78-2.11l-.8-.11c-2.94-.4-4.6-1.82-4.6-4.35,0-2.76,2-4.59,5.16-4.59a8.37,8.37,0,0,1,4.93,1.52.2.2,0,0,1,0,.31L189,175.52a.23.23,0,0,1-.32.07A6.39,6.39,0,0,0,185,174.4c-1.55,0-2.4.85-2.4,2s.74,1.77,2.8,2.06l.81.12c2.94.4,4.55,1.79,4.55,4.41s-2,4.73-5.74,4.73A8.54,8.54,0,0,1,179.43,185.74Z">
</path>
<path class="cls-1" fill="white" d="M195.12,184.09a12.21,12.21,0,0,1-.41-4.2,12.14,12.14,0,0,1,.41-4.19,5.79,5.79,0,0,1,10.78,0,12.48,12.48,0,0,1,.4,4.19,12.56,12.56,0,0,1-.4,4.2,5.79,5.79,0,0,1-10.78,0Zm8.23-.7a12.69,12.69,0,0,0,.26-3.5,12.54,12.54,0,0,0-.26-3.49,3,3,0,0,0-5.68,0,12,12,0,0,0-.27,3.49,12.1,12.1,0,0,0,.27,3.5,3,3,0,0,0,5.68,0Z">
</path>
<path class="cls-1" fill="white" d="M211,172.5a.21.21,0,0,1,.22-.23h2.06a.39.39,0,0,1,.38.23L219.86,183H220V172.5a.22.22,0,0,1,.23-.23h1.95a.21.21,0,0,1,.22.23v14.79a.21.21,0,0,1-.22.23h-2a.39.39,0,0,1-.38-.23l-6.24-10.49h-.08v10.49a.22.22,0,0,1-.23.23h-1.95a.21.21,0,0,1-.22-.23Z">
</path>
<path class="cls-1" fill="white" d="M227.48,172.5a.22.22,0,0,1,.23-.23h2.06a.39.39,0,0,1,.38.23L236.36,183h.09V172.5a.21.21,0,0,1,.22-.23h2a.22.22,0,0,1,.23.23v14.79a.22.22,0,0,1-.23.23h-2a.4.4,0,0,1-.39-.23L230,176.8h-.09v10.49a.21.21,0,0,1-.22.23h-1.95a.22.22,0,0,1-.23-.23Z">
</path>
<path class="cls-1" fill="white" d="M244,172.5a.21.21,0,0,1,.22-.23h9.55a.22.22,0,0,1,.23.23v1.92a.22.22,0,0,1-.23.23h-7c-.09,0-.13,0-.13.13v3.72c0,.09,0,.14.13.14h5.9a.21.21,0,0,1,.22.22v1.93a.21.21,0,0,1-.22.23h-5.9c-.09,0-.13,0-.13.13V185c0,.09,0,.13.13.13h7a.21.21,0,0,1,.23.22v1.93a.22.22,0,0,1-.23.23H244.2a.21.21,0,0,1-.22-.23Z">
</path>
<path class="cls-1" fill="white" d="M212.13,58.58l.2,0a1.89,1.89,0,0,0,.71-.28,2,2,0,0,0,.75-.83,1.16,1.16,0,0,0,0-1.36l-2.18-2.54c-1.48-1.73-2.95-3.45-4.46-5.14a1.66,1.66,0,0,0-1.47-.53l-13.3.15a2,2,0,0,0-1.53.81,2.1,2.1,0,0,0-.15.22l-.1.1-3.35,4.21-4.15-4.84a2.25,2.25,0,0,0-2-1c-2.68,0-7.24-.12-9.94-.12-1.19,0-1.28.17-1.67.75-.1.14-5.73,8.71-5.73,8.71a.62.62,0,0,0-.06.59c.22.5,1.12.64,1.49.67s1.28,0,1.61-.45l4-6,3.89,6.14c0,.69.11,3.84.12,4.52a.77.77,0,0,0,.42.66,3.07,3.07,0,0,0,2.5,0,.72.72,0,0,0,.36-.63c0-1-.07-3.22-.07-3.22l5.31-.14,0,5.37a.72.72,0,0,0,.48.67,1.69,1.69,0,0,0,.68.12c.86,0,2.08-.4,2.08-1.3v-5c.07,0,5.13-7.09,5.13-7.09l5.65,6.64v.23l-.13,10.44a1.48,1.48,0,0,0,1.5,1c1.23,0,1.73-.59,1.74-1.49l.12-9.44L212,58.6Zm.12-.45ZM184.91,56,177,56c-.07-.1-4-6.26-4-6.26h7.51l4.82,5.59S185,56,184.91,56Zm15,.26-4.51-5.3,9.41-.1,4.3,5Z">
</path>
<path class="cls-1" fill="white" d="M238.91,69.64c-.31-.86-6-6.91-6-7a1.65,1.65,0,0,0-1.27-.67l-13.4-.08c.05-.26.09-16.38.09-16.38a2,2,0,0,0,1.19-.9,1.14,1.14,0,0,0,0-1.06l-6.19-12.48a1.38,1.38,0,0,0-1.23-.82h-28.3s0-2.92,0-2.94a7.2,7.2,0,0,0,1.76-.86.62.62,0,0,0,.06-.18c0-.09.07-.25-.33-1l.08,0a1.06,1.06,0,0,0,.79-.93.91.91,0,0,0-.08-.44,2.21,2.21,0,0,0-.13-.23,1.2,1.2,0,0,0-.16-.16,1.49,1.49,0,0,0-.41-.26l-1-.56a3.73,3.73,0,0,0-.34-3.1c-.39-.65-1.8-1.71-2.46-2.49-.85-1-.8-2.6-.64-3.78A1.3,1.3,0,0,0,181,12a.94.94,0,0,0,.44-.8V11A1.21,1.21,0,0,0,180.6,10a1.85,1.85,0,0,0-1.35-.6h-.17a1.87,1.87,0,0,0-1.53.6,1,1,0,0,0-.71.93V11a1.06,1.06,0,0,0,.42.83,1.27,1.27,0,0,0,0,1.34,6.8,6.8,0,0,1-.8,3.74c-.65.86-2,1.54-2.62,2.57a4,4,0,0,0-.24,2.93l-1.39.83a1,1,0,0,0-.56,1,1.54,1.54,0,0,0,1.14,1l.09.16a2.52,2.52,0,0,0,.82,1.05h0l-.1,3.61-1-.05H172c-1.13,0-1.61.74-2.07,1.47a39.69,39.69,0,0,1-4,5.26,28.26,28.26,0,0,1-5.64,4.92c-.2.13-.46.3-.71.5a1.43,1.43,0,0,0-.51.53,1.21,1.21,0,0,0-.29.94,1.31,1.31,0,0,0,.58.86,2.21,2.21,0,0,0,.34.18v5.31c0,1.49,1.91,1.91,2.77,1.24a1.32,1.32,0,0,0,.51-1.08V44.93l51.34.71.67,0V61.92l-4.75,0a1.37,1.37,0,0,0-1.21.43c-1.23,1.39-2.44,2.81-3.65,4.22-.61.71-1.22,1.43-1.84,2.14a1,1,0,0,0,0,1.12,1.54,1.54,0,0,0,.61.68,1.6,1.6,0,0,0,.83.25c.24,0,18.75.41,19.66.45h.17l.1,6.78c0,.75,1,1.07,1.72,1.08a.86.86,0,0,0,1-.66l-.11-7.74,4.68-5.54s3.92,4.84,4.06,5,.18,5.36.18,5.36c0,.74,1,1.08,1.73,1.08a1.34,1.34,0,0,0,.56-.1.6.6,0,0,0,.39-.56A55.55,55.55,0,0,0,238.91,69.64ZM177.26,19.93c.39-.45,1.49-1.06,1.8-1.38.22.22,1,.83,1.31,1.17a2.2,2.2,0,0,1,.52,2.87.83.83,0,0,0-.11.46h-3.67a.82.82,0,0,0-.08-.46A2.5,2.5,0,0,1,177.26,19.93Zm-12.41,22,.48-.41A40.37,40.37,0,0,0,172.58,33l2.16.06c.59,0,.9-.09.91-.7,0-1.56.19-5.78.19-5.78h5.8v8.49c0,3,2.14,2.48,2.14,2.48V33.18h26.89l4.7,9.47ZM225.39,68.8s-16.26-.31-17.94-.36L211,64.33l18.13.09Z">
</path>
<path class="cls-2" d="M160.56,61.52">
</path>
<path class="cls-1" fill="white" d="M213.1,83.42c-15.83-11.52-35.16-19-54.5-21.9a144.37,144.37,0,0,0-63.72,4.1A141.61,141.61,0,0,0,61.77,80.51c-.81.5-.64,1,.27,1a6.71,6.71,0,0,0,3.55-1,127.24,127.24,0,0,1,43.52-16.85c-5.45,2.22-10.79,4.82-15.17,8.77A22.5,22.5,0,0,0,88,80.9c-.84,2.14-1.32,4.69-.35,6.87,2,4.47,8,5.79,12.33,6.63,5.38,1,10.88,1.37,16.27,2.38l.49.1.86.2c.58.14,1.16.31,1.72.5a11.58,11.58,0,0,1,3.23,1.64c2.4,1.81,2.83,4.48,1.9,7.24-.41,1.21,4.5.61,5-.8,3.84-11.43-13.74-11.66-20.59-12.61a62.52,62.52,0,0,1-8.36-1.58,15.55,15.55,0,0,1-6.11-2.87c-4.28-3.66-1.42-9.8,1.43-13.41a27.14,27.14,0,0,1,7.87-6.56A26.55,26.55,0,0,0,100,71.71c-1.83,1.85-3.94,4.39-3.81,7.17.08,2,1.57,3.46,3.18,4.45A23.77,23.77,0,0,0,107,86a72.31,72.31,0,0,0,9.84,1.24c3.28.23,6.58.3,9.87.27a42.27,42.27,0,0,1,9.6.56c9,2,15.64,8.73,19.79,16.68.56,1.07,3.79,0,3.34-.9-3.58-6.88-8.84-12.93-16.13-16a30,30,0,0,0-9.71-2.18c-3-.19-6.08,0-9.11,0-4.66-.07-29.87-.4-24.15-10.52,2.06-3.65,5.69-6.12,9.36-8C114.17,65,124,62,124.17,61.91a144,144,0,0,1,28.67,1.27,125.24,125.24,0,0,1,27.29,6.88,118,118,0,0,1,27.16,14.87c.75.55,2.45,0,3.22-.32C210.8,84.51,213.78,83.92,213.1,83.42Z">
</path>
<path class="cls-1" fill="white" d="M98.58,33.6a3,3,0,0,0-2.8-1.11H89.65c-1.3,0-2.77,1.28-3.36,1.7-3,2.13-6.91,5.35-10.52,8a2.94,2.94,0,0,0-1.45,2.21c0,1.35-.09,5.1-.09,5.1l-3,.64a4.39,4.39,0,0,0-1.86,1c-2,1.71-7.13,6.26-7.69,6.76l-11,.06a1.64,1.64,0,0,0-1.21.7l-3.27,4.1a2.4,2.4,0,0,0-.73,1.8c0,.47,0,4.71,0,4.71a.91.91,0,0,0,.51.81,1.38,1.38,0,0,0,.59.12c.66,0,1.58-.38,1.58-1.23l-.06-4.78,2.21-2.76,2.44,3.23-.07,8.64A.93.93,0,0,0,53,74a1.17,1.17,0,0,0,.8.26c.65,0,1.58-.38,1.58-1.23l.06-7.63,5.93-.09v5.37a.83.83,0,0,0,.27.65,1.67,1.67,0,0,0,1.28.27s1.89-.28,1.89-1.29V58.37l5.9-5.16,6,6.61v6.47c0,1.44,2.86.89,2.86,0v-6s6.93-2.68,9.19-3.58c1.88-.74.45-1.73-.28-2.4l-6.34-5.72c-.76-.69-1.36-.58-2.44-.31C79.05,48.5,77,49,77,49V44.9l14.83.18V51.3a1.18,1.18,0,0,0,1.29,1.33c.65,0,1.37-.18,1.37-1.23,0-1.57.09-3.46,0-5.86s-.36-2.72-.49-3c-1-2.09-3.33-7.22-3.33-7.22h6s4,5.45,5.46,7.37a1.53,1.53,0,0,0,2,.48c.4-.3.84-.87.17-1.86C104.07,40.88,99.05,34.24,98.58,33.6Zm-37.2,29c-.22,0-5.51.09-6.22.13l-.32,0L53.22,60.6l8.16,0Zm27.86-7.13h0Zm-8.48-5.3s3.82,3.46,5.64,5.09l-6.92,2.66L74,51.86ZM78.71,43,88,36l3.14,7.18Z">
</path>
<path class="cls-3" fill="#ffd200" d="M160.56,61.52">
</path>
<path class="cls-3" fill="#ffd200" d="M127.41,17.6c-3.06-5-7.28-14.13-7.72-14.84a4.83,4.83,0,0,0-2.89.43c-1.53.62-3.19,1.86-3.09,2.07,3,6.16,7.31,14.18,7.75,14.89a12.13,12.13,0,0,0,4.37-.9C127.66,18.38,127.41,17.6,127.41,17.6Z">
</path>
<path class="cls-3" fill="#ffd200" d="M157.47,27.75s12.87-8.93,13.5-9.46c.24-.21.08-.85,0-1.06a10.87,10.87,0,0,0-.69-2.23c-.09-.23-1.39-3.17-1.78-2.84-4.46,3.79-14.25,9.9-14.88,10.43-.25.21-.1.85,0,1.06A5.58,5.58,0,0,0,157.47,27.75Z">
</path>
<path class="cls-3" fill="#ffd200" d="M98,27.14c2,1.51,12.59,7.5,15.25,8.88,1,.5,1.5-1.68,1.64-2.17a12.31,12.31,0,0,0,.51-2.68c0-.42.16-1.41-.18-1.71-2.3-2-14.84-8.6-15.68-9.23-.63-.48-1.6,2.95-1.67,3.25a9.18,9.18,0,0,0-.28,2.5A4,4,0,0,0,98,27.14Z">
</path>
<path class="cls-3" fill="#ffd200" d="M102.54,60.49c2.38-.8,12.29-6.56,15.09-8.14,1-.52-3.19-5.82-3.61-5.65C110.76,48,99.71,54.64,98.71,55c-.75.25.44,2.4,1.42,3.74.49.67,2,1.92,2.41,1.77Z">
</path>
<path class="cls-3" fill="#ffd200" d="M145.42,17.69c.92-2.76,3.68-11.46,4.7-15.49.14-.52-1.51-1.87-3.2-2s-3.07-.24-3.13,0c-.85,3.31-4.44,15.39-4.87,16.35-.17.37,1.31.93,3.05,1.26a6.74,6.74,0,0,0,3.45-.06Z">
</path>
<path class="cls-3" fill="#ffd200" d="M127,78.48c1.53-4.87,4.08-13.24,4.27-13.84s-6.28-1.81-6.76-.28c-1.33,4.21-3.85,13-4.18,13.94s1.71,1.58,3.18,1.49C125.68,79.67,126.75,79.34,127,78.48Z">
</path>
<path class="cls-3" fill="#ffd200" d="M158,75.36c-2.1-3.58-2.78-4.71-4.88-8.43l-.91-1.61c-.79-1.41-3.23-1-4.27-.66a7.05,7.05,0,0,0-2.58,1.58c-.31.34,5.68,11.29,6,11.82.8,1.42,3.23,1,4.28.66a5.18,5.18,0,0,0,2.27-1.23A1.61,1.61,0,0,0,158,75.36Z">
</path>
<circle class="cls-3" fill="#ffd200"  cx="136.25" cy="39.44" r="15.93">
</circle>
</svg> 